<svg width="67" height="25" viewBox="0 0 67 25" fill="none" xmlns="http://www.w3.org/2000/svg">
<path d="M0 21.2218V4.75247H3.07907L3.43606 5.84751H3.52531C4.08311 5.19048 4.97559 4.55536 6.62668 4.55536C9.52725 4.55536 11.3568 7.05205 11.3568 10.4905C11.3568 13.907 9.57188 16.4037 6.62668 16.4037C4.97559 16.4037 4.08311 15.7686 3.52531 15.1115H3.43606V21.2218H0ZM5.57802 13.4471C7.31836 13.4471 7.87616 12.0892 7.87616 10.4905C7.87616 8.89171 7.27373 7.51196 5.57802 7.51196C3.8823 7.51196 3.27987 8.89171 3.27987 10.4905C3.27987 12.0892 3.83768 13.4471 5.57802 13.4471Z" fill="#E5105D"/>
<path d="M13.0299 16.2066V0H16.466V16.2066H13.0299Z" fill="#E5105D"/>
<path d="M22.0025 16.4037C19.3697 16.4037 17.9194 14.8487 17.9194 12.812C17.9194 10.6876 19.392 9.28593 22.6049 9.28593H25.1039V8.67271C25.1039 7.88428 24.5907 7.27106 23.3189 7.27106C22.2479 7.27106 21.6232 7.84048 21.6232 8.5413H18.4102C18.4102 6.39502 19.9944 4.55536 23.4305 4.55536C26.6211 4.55536 28.5399 6.28552 28.5399 8.67271V16.2066H25.4609L25.2154 15.1772H25.1262C24.4791 15.9 23.4528 16.4037 22.0025 16.4037ZM22.8727 13.7756C24.2783 13.7756 25.1039 12.9653 25.1039 12.0235V11.5417H22.895C21.8017 11.5417 21.3108 12.0235 21.3108 12.6367C21.3108 13.2938 21.8463 13.7756 22.8727 13.7756Z" fill="#E5105D"/>
<path d="M30.5484 16.2066V4.75247H33.6274L33.8952 5.84751H33.9844C34.6315 5.10288 35.6578 4.55536 37.175 4.55536C39.7632 4.55536 41.5036 6.15412 41.5036 8.67271V16.2066H38.0675V9.72394C38.0675 8.4099 37.4651 7.62147 36.1041 7.62147C34.8769 7.62147 33.9844 8.4756 33.9844 9.85535V16.2066H30.5484Z" fill="#E5105D"/>
<path d="M48.7339 16.4037C45.0524 16.4037 42.9551 13.7756 42.9551 10.4905C42.9551 7.24916 44.8739 4.55536 48.667 4.55536C52.2369 4.55536 54.245 7.03015 54.245 10.1401V11.3884H46.4581C46.4804 12.7243 47.1721 13.6661 48.7339 13.6661C50.0057 13.6661 50.5635 13.0529 50.7643 12.5272H54.0888C53.7764 14.5859 51.9245 16.4037 48.7339 16.4037ZM46.4804 9.26403H50.742C50.6751 8.16899 50.028 7.31486 48.667 7.31486C47.1944 7.31486 46.5473 8.16899 46.4804 9.26403Z" fill="#E5105D"/>
<path d="M61.1766 16.4037C57.3835 16.4037 55.3531 13.9289 55.3531 10.4905C55.3531 7.05205 57.4281 4.55536 61.1766 4.55536C64.925 4.55536 67 7.05205 67 10.4905C67 13.907 64.9696 16.4037 61.1766 16.4037ZM61.1766 13.4471C62.6045 13.4471 63.497 12.571 63.497 10.4905C63.497 8.4099 62.6045 7.51196 61.1766 7.51196C59.7486 7.51196 58.8561 8.4318 58.8561 10.4905C58.8561 12.571 59.7709 13.4471 61.1766 13.4471Z" fill="#E5105D"/>
<path d="M43.4923 24.9089V24.349H44.7797C45.0279 24.349 45.2194 24.2773 45.354 24.1341C45.4928 23.9865 45.5623 23.7912 45.5623 23.5482C45.5623 23.3008 45.4949 23.1076 45.3603 22.9688C45.2257 22.8255 45.0321 22.7539 44.7797 22.7539H43.4923V22.3372H44.6913C44.9859 22.3372 45.2446 22.3741 45.4676 22.4479C45.6948 22.5217 45.8715 22.6454 45.9977 22.819C46.1282 22.9883 46.1934 23.2205 46.1934 23.5156V23.6068C46.1934 23.8846 46.1387 24.1211 46.0293 24.3164C45.9199 24.5074 45.7537 24.6549 45.5307 24.7591C45.3077 24.8589 45.0279 24.9089 44.6913 24.9089H43.4923ZM43 24.9089V20.1042H43.6185V24.9089H43ZM43.4923 22.6367V22.2201H44.6093C44.8702 22.2201 45.0616 22.1484 45.1836 22.0052C45.3098 21.8576 45.3729 21.671 45.3729 21.4453C45.3729 21.2153 45.3098 21.0286 45.1836 20.8854C45.0616 20.7378 44.8702 20.6641 44.6093 20.6641H43.4923V20.1042H44.502C45.0069 20.1042 45.3835 20.2148 45.6317 20.4362C45.8799 20.6532 46.004 20.9679 46.004 21.3802V21.4714C46.004 21.7622 45.9409 21.9944 45.8147 22.168C45.6885 22.3372 45.5118 22.4588 45.2846 22.5326C45.0616 22.602 44.8007 22.6367 44.502 22.6367H43.4923Z" fill="#E5105D"/>
<path d="M47.3021 24.8828V20.1302H47.9206V24.8828H47.3021Z" fill="#E5105D"/>
<path d="M49.274 24.8828V20.1302H49.8925V24.8828H49.274ZM49.7663 24.8828V24.3099H51.8742V24.8828H49.7663Z" fill="#E5105D"/>
<path d="M53.1991 24.9089V24.349H54.4866C54.7348 24.349 54.9262 24.2773 55.0609 24.1341C55.1997 23.9865 55.2691 23.7912 55.2691 23.5482C55.2691 23.3008 55.2018 23.1076 55.0672 22.9688C54.9325 22.8255 54.739 22.7539 54.4866 22.7539H53.1991V22.3372H54.3982C54.6927 22.3372 54.9515 22.3741 55.1745 22.4479C55.4017 22.5217 55.5784 22.6454 55.7046 22.819C55.835 22.9883 55.9002 23.2205 55.9002 23.5156V23.6068C55.9002 23.8846 55.8455 24.1211 55.7361 24.3164C55.6268 24.5074 55.4606 24.6549 55.2376 24.7591C55.0146 24.8589 54.7348 24.9089 54.3982 24.9089H53.1991ZM52.7069 24.9089V20.1042H53.3253V24.9089H52.7069ZM53.1991 22.6367V22.2201H54.3162C54.577 22.2201 54.7685 22.1484 54.8905 22.0052C55.0167 21.8576 55.0798 21.671 55.0798 21.4453C55.0798 21.2153 55.0167 21.0286 54.8905 20.8854C54.7685 20.7378 54.577 20.6641 54.3162 20.6641H53.1991V20.1042H54.2089C54.7138 20.1042 55.0903 20.2148 55.3385 20.4362C55.5868 20.6532 55.7109 20.9679 55.7109 21.3802V21.4714C55.7109 21.7622 55.6478 21.9944 55.5216 22.168C55.3953 22.3372 55.2186 22.4588 54.9914 22.5326C54.7685 22.602 54.5076 22.6367 54.2089 22.6367H53.1991Z" fill="#E5105D"/>
<path d="M56.4425 24.8828L58.1023 20.1302H59.1499L60.8602 24.8828H60.2228L58.6766 20.5469L58.9795 20.7031H58.2348L58.5567 20.5469L57.061 24.8828H56.4425ZM57.4333 23.4635L57.6416 22.8906H59.6295L59.8378 23.4635H57.4333Z" fill="#E5105D"/>
<path d="M63.6208 25C63.2084 25 62.8529 24.924 62.5542 24.7721C62.2555 24.6202 62.0093 24.4206 61.8158 24.1732C61.6223 23.9258 61.4771 23.661 61.3803 23.3789C61.2878 23.0968 61.2415 22.8255 61.2415 22.5651V22.4219C61.2415 22.1398 61.2899 21.8555 61.3867 21.569C61.4834 21.2826 61.6307 21.0221 61.8284 20.7878C62.0262 20.549 62.2723 20.3581 62.5668 20.2148C62.8655 20.0716 63.2168 20 63.6208 20C64.0247 20 64.3739 20.0716 64.6684 20.2148C64.9671 20.3581 65.2153 20.549 65.4131 20.7878C65.6108 21.0221 65.7581 21.2826 65.8549 21.569C65.9516 21.8555 66 22.1398 66 22.4219V22.5651C66 22.8255 65.9516 23.0968 65.8549 23.3789C65.7623 23.661 65.6192 23.9258 65.4257 24.1732C65.2322 24.4206 64.986 24.6202 64.6873 24.7721C64.3886 24.924 64.0331 25 63.6208 25ZM63.6208 24.4141C63.89 24.4141 64.1319 24.362 64.3465 24.2578C64.5653 24.1536 64.7504 24.0126 64.9019 23.8346C65.0534 23.6523 65.169 23.4484 65.249 23.2227C65.3289 22.9926 65.3689 22.7517 65.3689 22.5C65.3689 22.2352 65.3289 21.9878 65.249 21.7578C65.169 21.5278 65.0534 21.326 64.9019 21.1523C64.7504 20.9744 64.5653 20.8355 64.3465 20.7357C64.1319 20.6359 63.89 20.5859 63.6208 20.5859C63.3515 20.5859 63.1075 20.6359 62.8887 20.7357C62.6741 20.8355 62.4911 20.9744 62.3396 21.1523C62.1882 21.326 62.0725 21.5278 61.9925 21.7578C61.9126 21.9878 61.8726 22.2352 61.8726 22.5C61.8726 22.7517 61.9126 22.9926 61.9925 23.2227C62.0725 23.4484 62.1882 23.6523 62.3396 23.8346C62.4911 24.0126 62.6741 24.1536 62.8887 24.2578C63.1075 24.362 63.3515 24.4141 63.6208 24.4141Z" fill="#E5105D"/>
</svg>
