<svg width="68" height="32" viewBox="0 0 68 32" fill="none" xmlns="http://www.w3.org/2000/svg">
<path d="M1.387 22.1662V7.95421H3.8V12.4572L3.477 12.4382C3.52767 11.3995 3.743 10.5255 4.123 9.81621C4.503 9.09421 5.016 8.55588 5.662 8.20121C6.308 7.83388 7.03633 7.65021 7.847 7.65021C8.569 7.65021 9.22133 7.78321 9.804 8.04921C10.3993 8.31521 10.906 8.68888 11.324 9.17021C11.7547 9.63888 12.0777 10.1962 12.293 10.8422C12.521 11.4755 12.635 12.1722 12.635 12.9322V13.3692C12.635 14.1165 12.5273 14.8195 12.312 15.4782C12.0967 16.1242 11.78 16.6879 11.362 17.1692C10.9567 17.6505 10.4563 18.0305 9.861 18.3092C9.27833 18.5752 8.607 18.7082 7.847 18.7082C7.06167 18.7082 6.35233 18.5499 5.719 18.2332C5.09833 17.9039 4.598 17.4099 4.218 16.7512C3.838 16.0799 3.629 15.2312 3.591 14.2052L4.427 15.3452V22.1662H1.387ZM6.992 16.1622C7.51133 16.1622 7.961 16.0355 8.341 15.7822C8.73367 15.5289 9.03767 15.1742 9.253 14.7182C9.46833 14.2622 9.576 13.7365 9.576 13.1412C9.576 12.5459 9.46833 12.0265 9.253 11.5832C9.03767 11.1399 8.74 10.7979 8.36 10.5572C7.98 10.3039 7.524 10.1772 6.992 10.1772C6.536 10.1772 6.10533 10.2849 5.7 10.5002C5.29467 10.7155 4.96533 11.0259 4.712 11.4312C4.47133 11.8239 4.351 12.3052 4.351 12.8752V13.5782C4.351 14.1229 4.47767 14.5915 4.731 14.9842C4.997 15.3642 5.33267 15.6555 5.738 15.8582C6.14333 16.0609 6.56133 16.1622 6.992 16.1622ZM14.8794 18.3662V4.49621H17.9384V18.3662H14.8794ZM13.6444 6.73821V4.49621H17.9384V6.73821H13.6444ZM27.0285 18.3662V15.2882H26.5155V11.9442C26.5155 11.4122 26.3889 11.0132 26.1355 10.7472C25.8822 10.4812 25.4769 10.3482 24.9195 10.3482C24.6409 10.3482 24.2735 10.3545 23.8175 10.3672C23.3615 10.3799 22.8929 10.3989 22.4115 10.4242C21.9302 10.4495 21.4932 10.4749 21.1005 10.5002V7.93521C21.3919 7.90988 21.7339 7.88454 22.1265 7.85921C22.5192 7.83388 22.9245 7.81488 23.3425 7.80221C23.7605 7.78954 24.1532 7.78321 24.5205 7.78321C25.5845 7.78321 26.4775 7.93521 27.1995 8.23921C27.9342 8.54321 28.4915 9.00554 28.8715 9.62621C29.2515 10.2342 29.4415 11.0195 29.4415 11.9822V18.3662H27.0285ZM23.7035 18.6322C22.9562 18.6322 22.2975 18.4992 21.7275 18.2332C21.1702 17.9672 20.7332 17.5872 20.4165 17.0932C20.0999 16.5865 19.9415 15.9849 19.9415 15.2882C19.9415 14.5282 20.1379 13.9075 20.5305 13.4262C20.9232 12.9322 21.4742 12.5712 22.1835 12.3432C22.8929 12.1025 23.7099 11.9822 24.6345 11.9822H26.8575V13.6732H24.6155C24.0835 13.6732 23.6719 13.8062 23.3805 14.0722C23.1019 14.3255 22.9625 14.6739 22.9625 15.1172C22.9625 15.5352 23.1019 15.8772 23.3805 16.1432C23.6719 16.3965 24.0835 16.5232 24.6155 16.5232C24.9575 16.5232 25.2615 16.4662 25.5275 16.3522C25.8062 16.2255 26.0342 16.0165 26.2115 15.7252C26.3889 15.4339 26.4902 15.0285 26.5155 14.5092L27.2375 15.2692C27.1742 15.9912 26.9969 16.5992 26.7055 17.0932C26.4269 17.5872 26.0342 17.9672 25.5275 18.2332C25.0335 18.4992 24.4255 18.6322 23.7035 18.6322ZM32.0208 18.3662V7.95421H34.4338V12.4192H34.2628C34.2628 11.3552 34.3958 10.4685 34.6618 9.75921C34.9405 9.04988 35.3585 8.51788 35.9158 8.16321C36.4731 7.80854 37.1508 7.63121 37.9488 7.63121H38.0818C39.2978 7.63121 40.2225 8.03021 40.8558 8.82821C41.5018 9.61354 41.8248 10.8105 41.8248 12.4192V18.3662H38.7848V12.2482C38.7848 11.6909 38.6201 11.2349 38.2908 10.8802C37.9615 10.5255 37.5181 10.3482 36.9608 10.3482C36.3908 10.3482 35.9285 10.5319 35.5738 10.8992C35.2318 11.2539 35.0608 11.7225 35.0608 12.3052V18.3662H32.0208ZM49.1843 18.7272C48.2977 18.7272 47.5123 18.5752 46.8283 18.2712C46.157 17.9672 45.5933 17.5619 45.1373 17.0552C44.694 16.5359 44.352 15.9595 44.1113 15.3262C43.8833 14.6802 43.7693 14.0215 43.7693 13.3502V12.9702C43.7693 12.2735 43.8833 11.6085 44.1113 10.9752C44.352 10.3292 44.694 9.75288 45.1373 9.24621C45.5807 8.73954 46.1317 8.34054 46.7903 8.04921C47.4617 7.74521 48.2217 7.59321 49.0703 7.59321C50.185 7.59321 51.1223 7.84654 51.8823 8.35321C52.655 8.84721 53.244 9.49954 53.6493 10.3102C54.0547 11.1082 54.2573 11.9822 54.2573 12.9322V13.9582H45.0423V12.2292H52.4143L51.4263 13.0272C51.4263 12.4065 51.3377 11.8745 51.1603 11.4312C50.983 10.9879 50.717 10.6522 50.3623 10.4242C50.0203 10.1835 49.5897 10.0632 49.0703 10.0632C48.5383 10.0632 48.0887 10.1835 47.7213 10.4242C47.354 10.6649 47.0753 11.0195 46.8853 11.4882C46.6953 11.9442 46.6003 12.5079 46.6003 13.1792C46.6003 13.7999 46.689 14.3445 46.8663 14.8132C47.0437 15.2692 47.3223 15.6239 47.7023 15.8772C48.0823 16.1305 48.5763 16.2572 49.1843 16.2572C49.7417 16.2572 50.1977 16.1495 50.5523 15.9342C50.907 15.7189 51.1477 15.4529 51.2743 15.1362H54.0673C53.9153 15.8329 53.6177 16.4535 53.1743 16.9982C52.731 17.5429 52.1737 17.9672 51.5023 18.2712C50.831 18.5752 50.0583 18.7272 49.1843 18.7272ZM61.3448 18.7272C60.4328 18.7272 59.6221 18.5879 58.9128 18.3092C58.2034 18.0179 57.6018 17.6252 57.1078 17.1312C56.6264 16.6372 56.2591 16.0735 56.0058 15.4402C55.7524 14.7942 55.6258 14.1165 55.6258 13.4072V12.9702C55.6258 12.2482 55.7524 11.5642 56.0058 10.9182C56.2718 10.2595 56.6518 9.68321 57.1458 9.18921C57.6524 8.69521 58.2604 8.30888 58.9698 8.03021C59.6791 7.73888 60.4708 7.59321 61.3448 7.59321C62.2441 7.59321 63.0421 7.73888 63.7388 8.03021C64.4481 8.30888 65.0498 8.69521 65.5438 9.18921C66.0378 9.68321 66.4178 10.2595 66.6838 10.9182C66.9498 11.5642 67.0828 12.2482 67.0828 12.9702V13.4072C67.0828 14.1165 66.9561 14.7942 66.7028 15.4402C66.4494 16.0735 66.0758 16.6372 65.5818 17.1312C65.1004 17.6252 64.5051 18.0179 63.7958 18.3092C63.0864 18.5879 62.2694 18.7272 61.3448 18.7272ZM61.3448 16.1622C61.9401 16.1622 62.4341 16.0355 62.8268 15.7822C63.2194 15.5289 63.5171 15.1742 63.7198 14.7182C63.9351 14.2622 64.0428 13.7555 64.0428 13.1982C64.0428 12.6029 63.9351 12.0835 63.7198 11.6402C63.5044 11.1842 63.1941 10.8232 62.7888 10.5572C62.3961 10.2912 61.9148 10.1582 61.3448 10.1582C60.7874 10.1582 60.3061 10.2912 59.9008 10.5572C59.4954 10.8232 59.1851 11.1842 58.9698 11.6402C58.7671 12.0835 58.6658 12.6029 58.6658 13.1982C58.6658 13.7555 58.7671 14.2622 58.9698 14.7182C59.1724 15.1742 59.4764 15.5289 59.8818 15.7822C60.2871 16.0355 60.7748 16.1622 61.3448 16.1622Z" fill="#E6105D"/>
<path d="M34.472 29.0783V28.3903H36.104C36.4187 28.3903 36.6613 28.3023 36.832 28.1263C37.008 27.9449 37.096 27.7049 37.096 27.4063C37.096 27.1023 37.0107 26.8649 36.84 26.6943C36.6693 26.5183 36.424 26.4303 36.104 26.4303H34.472V25.9183H35.992C36.3653 25.9183 36.6933 25.9636 36.976 26.0543C37.264 26.1449 37.488 26.2969 37.648 26.5103C37.8133 26.7183 37.896 27.0036 37.896 27.3663V27.4783C37.896 27.8196 37.8267 28.1103 37.688 28.3503C37.5493 28.5849 37.3387 28.7663 37.056 28.8943C36.7733 29.0169 36.4187 29.0783 35.992 29.0783H34.472ZM33.848 29.0783V23.1743H34.632V29.0783H33.848ZM34.472 26.2863V25.7743H35.888C36.2187 25.7743 36.4613 25.6863 36.616 25.5103C36.776 25.3289 36.856 25.0996 36.856 24.8223C36.856 24.5396 36.776 24.3103 36.616 24.1343C36.4613 23.9529 36.2187 23.8623 35.888 23.8623H34.472V23.1743H35.752C36.392 23.1743 36.8693 23.3103 37.184 23.5823C37.4987 23.8489 37.656 24.2356 37.656 24.7423V24.8543C37.656 25.2116 37.576 25.4969 37.416 25.7103C37.256 25.9183 37.032 26.0676 36.744 26.1583C36.4613 26.2436 36.1307 26.2863 35.752 26.2863H34.472ZM40.1015 29.0463V23.2063H40.8855V29.0463H40.1015ZM43.4011 29.0463V23.2063H44.1851V29.0463H43.4011ZM44.0251 29.0463V28.3423H46.6971V29.0463H44.0251ZM49.1767 29.0783V28.3903H50.8087C51.1234 28.3903 51.366 28.3023 51.5367 28.1263C51.7127 27.9449 51.8007 27.7049 51.8007 27.4063C51.8007 27.1023 51.7154 26.8649 51.5447 26.6943C51.374 26.5183 51.1287 26.4303 50.8087 26.4303H49.1767V25.9183H50.6967C51.07 25.9183 51.398 25.9636 51.6807 26.0543C51.9687 26.1449 52.1927 26.2969 52.3527 26.5103C52.518 26.7183 52.6007 27.0036 52.6007 27.3663V27.4783C52.6007 27.8196 52.5314 28.1103 52.3927 28.3503C52.254 28.5849 52.0434 28.7663 51.7607 28.8943C51.478 29.0169 51.1234 29.0783 50.6967 29.0783H49.1767ZM48.5527 29.0783V23.1743H49.3367V29.0783H48.5527ZM49.1767 26.2863V25.7743H50.5927C50.9234 25.7743 51.166 25.6863 51.3207 25.5103C51.4807 25.3289 51.5607 25.0996 51.5607 24.8223C51.5607 24.5396 51.4807 24.3103 51.3207 24.1343C51.166 23.9529 50.9234 23.8623 50.5927 23.8623H49.1767V23.1743H50.4567C51.0967 23.1743 51.574 23.3103 51.8887 23.5823C52.2034 23.8489 52.3607 24.2356 52.3607 24.7423V24.8543C52.3607 25.2116 52.2807 25.4969 52.1207 25.7103C51.9607 25.9183 51.7367 26.0676 51.4487 26.1583C51.166 26.2436 50.8354 26.2863 50.4567 26.2863H49.1767ZM54.0881 29.0463L56.1921 23.2063H57.5201L59.6881 29.0463H58.8801L56.9201 23.7183L57.3041 23.9103H56.3601L56.7681 23.7183L54.8721 29.0463H54.0881ZM55.3441 27.3023L55.6081 26.5983H58.1281L58.3921 27.3023H55.3441ZM63.9874 29.1903C63.4648 29.1903 63.0141 29.0969 62.6354 28.9103C62.2568 28.7236 61.9448 28.4783 61.6994 28.1743C61.4541 27.8703 61.2701 27.5449 61.1474 27.1983C61.0301 26.8516 60.9714 26.5183 60.9714 26.1983V26.0223C60.9714 25.6756 61.0328 25.3263 61.1554 24.9743C61.2781 24.6223 61.4648 24.3023 61.7154 24.0143C61.9661 23.7209 62.2781 23.4863 62.6514 23.3103C63.0301 23.1343 63.4754 23.0463 63.9874 23.0463C64.4994 23.0463 64.9421 23.1343 65.3154 23.3103C65.6941 23.4863 66.0088 23.7209 66.2594 24.0143C66.5101 24.3023 66.6968 24.6223 66.8194 24.9743C66.9421 25.3263 67.0034 25.6756 67.0034 26.0223V26.1983C67.0034 26.5183 66.9421 26.8516 66.8194 27.1983C66.7021 27.5449 66.5208 27.8703 66.2754 28.1743C66.0301 28.4783 65.7181 28.7236 65.3394 28.9103C64.9608 29.0969 64.5101 29.1903 63.9874 29.1903ZM63.9874 28.4703C64.3288 28.4703 64.6354 28.4063 64.9074 28.2783C65.1848 28.1503 65.4194 27.9769 65.6114 27.7583C65.8034 27.5343 65.9501 27.2836 66.0514 27.0063C66.1528 26.7236 66.2034 26.4276 66.2034 26.1183C66.2034 25.7929 66.1528 25.4889 66.0514 25.2063C65.9501 24.9236 65.8034 24.6756 65.6114 24.4623C65.4194 24.2436 65.1848 24.0729 64.9074 23.9503C64.6354 23.8276 64.3288 23.7663 63.9874 23.7663C63.6461 23.7663 63.3368 23.8276 63.0594 23.9503C62.7874 24.0729 62.5554 24.2436 62.3634 24.4623C62.1714 24.6756 62.0248 24.9236 61.9234 25.2063C61.8221 25.4889 61.7714 25.7929 61.7714 26.1183C61.7714 26.4276 61.8221 26.7236 61.9234 27.0063C62.0248 27.2836 62.1714 27.5343 62.3634 27.7583C62.5554 27.9769 62.7874 28.1503 63.0594 28.2783C63.3368 28.4063 63.6461 28.4703 63.9874 28.4703Z" fill="#3C3C3C"/>
</svg>
